<svg width="379" height="128" viewBox="0 0 379 128" fill="none" xmlns="http://www.w3.org/2000/svg">
<path d="M43.5734 86.2127C43.0123 89.3518 42.2941 92.5576 41.4637 95.7412C40.6446 98.8691 39.6571 101.786 38.5125 104.39C37.424 106.895 36.1447 108.921 34.7083 110.401C33.4291 111.715 32.0152 112.36 30.3768 112.36C27.7846 112.36 25.5628 110.68 23.599 107.218C21.4557 103.433 19.7836 97.923 18.6278 90.8545C17.4608 83.6859 16.866 75.0591 16.866 65.23C16.866 53.8649 17.4496 44.0692 18.6054 36.1103C19.75 28.2292 21.3322 22.1626 23.3072 18.0774C25.069 14.4486 26.9206 12.6007 28.8282 12.6007C29.9279 12.6007 31.0389 13.5024 32.1498 15.2834C33.5076 17.4652 34.7869 20.2592 35.9876 23.6097C36.9639 26.2812 37.8504 29.3424 38.6471 32.6929C39.4326 36.0435 40.0274 39.472 40.3977 42.9116L40.5548 44.3141H48.2865V1.82555H41.1607L41.0934 3.32829C40.9812 5.62136 40.8017 6.90147 40.6446 7.60275C40.4987 7.43578 40.3528 7.26881 40.1957 7.11297C38.4227 5.04253 36.6385 3.35055 34.8654 2.0927C32.9241 0.71241 30.7471 0 28.3794 0C24.5079 0 20.9619 1.20219 17.8535 3.56205C14.8461 5.84399 12.1754 9.09436 9.9311 13.213C7.73167 17.2314 5.86889 22.0179 4.41008 27.4278C2.95127 32.7931 1.84034 38.7262 1.11094 45.0711C0.381534 51.3937 0 58.1171 0 65.0631C0 74.6138 0.684516 83.3074 2.04233 90.9102C3.40014 98.5463 5.33025 105.169 7.77655 110.602C10.2565 116.112 13.1966 120.408 16.5182 123.369C19.9744 126.442 23.7673 128 27.8071 128C30.9154 128 33.7096 127.21 36.111 125.651C38.4339 124.137 40.4762 122.067 42.1595 119.473C43.7866 116.969 45.2117 114.086 46.3788 110.88C47.5346 107.719 48.4997 104.346 49.2627 100.839C50.0146 97.3775 50.6654 93.8934 51.2041 90.4649L51.3387 89.5855L44.0559 83.5412L43.5734 86.2127Z" fill="#D60000"/>
<path d="M94.5408 13.4161L95.5732 13.7946C96.3812 14.0951 97.032 14.429 97.4921 14.7853C97.8961 15.0969 98.2103 15.4865 98.446 15.9763L98.5245 16.121C98.7938 16.544 98.9734 17.1228 99.0744 17.8687C99.1978 18.7592 99.2651 19.85 99.2651 21.0856V55.259H83.9926V21.0856C83.9926 19.8389 84.0599 18.7592 84.1833 17.8687C84.2843 17.134 84.4751 16.544 84.7332 16.121L84.8117 15.9763C85.0474 15.4865 85.3616 15.0858 85.7656 14.7853C86.2256 14.429 86.8765 14.0951 87.6845 13.7946L88.7168 13.4161V3.13067H62.896V13.6276L64.1865 13.8725C65.0842 14.0394 65.7799 14.2732 66.2737 14.5626C66.6777 14.7964 66.9919 15.1303 67.25 15.6201C67.6315 16.288 68.0804 17.7907 68.0804 21.0968V106.319C68.0804 107.532 68.0018 108.567 67.8447 109.38C67.6988 110.159 67.4744 110.838 67.2275 111.361C66.6889 112.352 65.5106 113.343 63.7152 114.311L62.8848 114.756V124.886H89.0535V114.801L88.2792 114.345C86.6296 113.365 85.4738 112.341 84.8566 111.306C84.5424 110.771 84.318 110.115 84.1945 109.347C84.0599 108.467 83.9813 107.399 83.9813 106.163V68.0935H99.2539V106.163C99.2539 107.387 99.1866 108.467 99.0407 109.347C98.9173 110.115 98.6928 110.771 98.3786 111.295C97.7502 112.341 96.5944 113.365 94.9448 114.333L94.1705 114.79V124.875H120.339V114.745L119.509 114.3C117.725 113.332 116.535 112.341 116.03 111.417C115.75 110.838 115.525 110.148 115.379 109.369C115.222 108.556 115.144 107.521 115.144 106.308V21.0856C115.144 17.7685 115.593 16.2769 115.997 15.5756C116.243 15.1192 116.558 14.7853 116.962 14.5515C117.455 14.2621 118.151 14.0283 119.049 13.8613L120.339 13.6165V3.13067H94.5184V13.4161H94.5408Z" fill="#D60000"/>
<path d="M175.746 86.8809C175.252 90.4764 174.657 93.7824 173.962 96.7211C173.266 99.6264 172.435 102.265 171.47 104.569C170.371 107.24 169.047 109.311 167.532 110.724C166.129 112.027 164.356 112.661 162.1 112.661H157.376C156.938 112.661 156.478 112.528 155.996 112.238C155.491 111.938 155.064 111.504 154.694 110.914C154.458 110.524 154.144 109.745 153.987 108.175C153.841 106.739 153.763 105.014 153.763 103.033V68.4028H157.017C158.038 68.4028 158.835 68.6922 159.486 69.2822C160.271 70.0057 160.945 70.9296 161.483 72.0428C162.067 73.1782 162.572 74.7811 162.987 76.7848C163.402 78.8441 163.638 81.2262 163.671 83.8532L163.694 85.4005H171.448V40.4073H163.694L163.671 41.9546C163.638 44.1809 163.391 46.3181 162.953 48.3217C162.527 50.292 162.022 51.8838 161.45 53.0526C160.978 54.0322 160.361 54.8336 159.609 55.4124C158.925 55.9356 158.072 56.1916 157.006 56.1916H153.751V24.5339C153.751 20.9051 154.133 18.1556 154.851 16.4748C155.02 16.1409 155.289 15.8737 155.693 15.6511C155.985 15.4841 156.579 15.2837 157.702 15.2837H162.078C163.447 15.2837 164.782 15.7401 166.163 16.6863C167.52 17.6213 168.699 19.3022 169.675 21.7511C170.371 23.3095 171.01 25.046 171.56 26.9272C172.121 28.8307 172.615 30.7341 173.03 32.5819C173.445 34.4075 173.782 36.0661 174.063 37.4798L174.309 38.7599H181.401L180.392 3.13937H130.994V13.6474L132.296 13.8812C134.226 14.2263 135.18 14.5491 135.64 14.7606C136.044 14.9387 136.437 15.4507 136.784 16.2633C137.177 17.1427 137.458 18.1445 137.615 19.2576C137.783 20.4487 137.862 22.0516 137.862 23.9996V103.044C137.862 105.281 137.761 107.051 137.57 108.287C137.39 109.411 137.076 110.357 136.605 111.17C136.223 111.904 135.718 112.472 135.056 112.906C134.372 113.363 133.463 113.674 132.352 113.841L131.005 114.042V124.895H181.783L183.096 85.5452H175.925L175.735 86.9032L175.746 86.8809Z" fill="#D60000"/>
<path d="M249.469 113.029C248.672 112.138 248.044 111.314 247.595 110.602C247.213 109.967 246.843 108.999 246.495 107.73C246.125 106.35 245.721 104.613 245.317 102.587C244.969 100.751 244.531 98.5244 243.981 95.8974C243.443 93.2704 242.859 90.5766 242.242 87.7937C241.625 85.0109 241.03 82.4172 240.447 79.9906C239.863 77.564 239.358 75.6048 238.921 74.1466C237.888 70.7515 236.418 68.1245 234.555 66.3435C233.725 65.5532 232.883 64.863 232.03 64.2842C232.917 63.9169 233.815 63.4271 234.69 62.826C236.654 61.4902 238.371 59.8428 239.829 57.9282C241.715 55.3791 243.117 52.2734 244.004 48.6891C244.879 45.1716 245.317 40.7635 245.317 35.5874C245.317 29.4986 244.587 24.2111 243.162 19.8588C241.715 15.4396 239.785 11.9555 237.451 9.51768C235.52 7.4695 233.018 5.86658 230.011 4.76457C227.059 3.68482 223.536 3.13938 219.518 3.13938H195.291V13.5584L196.48 13.8589C197.883 14.2151 198.938 14.9609 199.667 16.1186C200.015 16.6863 200.251 17.4655 200.374 18.4451C200.52 19.5693 200.588 20.6268 200.588 21.5619V105.86C200.588 108.331 200.262 110.179 199.656 111.314C199.174 112.127 198.669 112.828 198.13 113.407C197.76 113.808 197.277 114.042 196.638 114.142L195.291 114.342V124.884H221.852V114.398L220.573 114.142C220.068 114.042 219.507 113.741 218.912 113.251C218.273 112.728 217.79 112.127 217.431 111.415C217.151 110.847 216.926 110.012 216.758 108.955C216.578 107.83 216.489 106.728 216.489 105.693V70.0725H216.926C217.925 70.0725 218.744 70.4955 219.53 71.386C220.495 72.4992 221.392 74.0464 222.212 75.961C222.717 77.1521 223.289 78.9776 223.895 81.382C224.523 83.8309 225.174 86.7474 225.836 90.0311C226.498 93.3038 227.16 96.8881 227.811 100.662C228.462 104.446 229.102 108.287 229.741 112.194C230.37 116.079 230.942 119.886 231.436 123.514L231.626 124.872H253.441V113.953H251.859C250.771 113.953 250.007 113.663 249.435 113.029H249.469ZM216.533 21.6954C216.533 20.6491 216.634 19.6473 216.848 18.7122C217.095 17.5879 217.319 17.0425 217.465 16.7531C217.667 16.3412 217.981 15.9739 218.407 15.6288C218.722 15.3728 219.092 15.2615 219.563 15.2615H221.695C222.346 15.2615 223.008 15.5843 223.704 16.2633C224.579 17.1093 225.432 18.2892 226.229 19.7586C227.071 21.3281 227.721 23.4987 228.17 26.2148C228.63 29.0199 228.866 32.159 228.866 35.5652C228.866 39.4166 228.597 42.8896 228.08 45.8951C227.576 48.8115 226.824 51.1825 225.847 52.9302C224.793 54.778 223.67 56.0692 222.503 56.7928C221.348 57.5052 220.124 57.8502 218.755 57.8502H216.533V21.6954Z" fill="#D60000"/>
<path d="M315.561 113.029C314.764 112.138 314.135 111.314 313.687 110.602C313.305 109.967 312.935 108.999 312.587 107.73C312.217 106.35 311.813 104.613 311.409 102.587C311.061 100.751 310.623 98.5244 310.073 95.8974C309.535 93.2704 308.951 90.5766 308.334 87.7937C307.717 85.0109 307.122 82.4172 306.538 79.9906C305.955 77.5639 305.45 75.6048 305.012 74.1466C303.98 70.7515 302.51 68.1245 300.647 66.3435C299.817 65.5532 298.975 64.863 298.122 64.2842C299.009 63.9168 299.906 63.4271 300.782 62.826C302.746 61.4902 304.462 59.8427 305.921 57.9281C307.806 55.3791 309.209 52.2734 310.096 48.6891C310.971 45.1716 311.409 40.7635 311.409 35.5874C311.409 29.4985 310.679 24.2111 309.254 19.8587C307.806 15.4396 305.876 11.9554 303.542 9.51767C301.612 7.46949 299.11 5.86657 296.102 4.76456C293.151 3.68481 289.628 3.13937 285.61 3.13937H261.383V13.5584L262.572 13.8589C263.975 14.2151 265.03 14.9609 265.759 16.1186C266.107 16.6863 266.343 17.4655 266.466 18.4451C266.612 19.5693 266.679 20.6268 266.679 21.5618V105.86C266.679 108.331 266.354 110.179 265.748 111.314C265.266 112.127 264.76 112.828 264.222 113.407C263.852 113.808 263.369 114.042 262.729 114.142L261.383 114.342V124.884H287.944V114.398L286.665 114.142C286.16 114.042 285.599 113.741 285.004 113.251C284.365 112.728 283.882 112.127 283.523 111.415C283.242 110.847 283.018 110.012 282.85 108.954C282.67 107.83 282.58 106.728 282.58 105.693V70.0725H283.018C284.017 70.0725 284.836 70.4955 285.621 71.386C286.586 72.4992 287.484 74.0464 288.303 75.961C288.808 77.1521 289.381 78.9776 289.987 81.382C290.615 83.8309 291.266 86.7473 291.928 90.0311C292.59 93.3037 293.252 96.8881 293.903 100.662C294.554 104.446 295.193 108.287 295.833 112.194C296.461 116.079 297.034 119.886 297.527 123.514L297.718 124.872H319.533V113.953H317.951C316.862 113.953 316.099 113.663 315.527 113.029H315.561ZM282.625 21.6954C282.625 20.6491 282.726 19.6472 282.939 18.7122C283.186 17.5879 283.411 17.0425 283.557 16.7531C283.759 16.3412 284.073 15.9739 284.499 15.6288C284.813 15.3728 285.184 15.2615 285.655 15.2615H287.787C288.438 15.2615 289.1 15.5843 289.796 16.2633C290.671 17.1093 291.524 18.2892 292.321 19.7586C293.162 21.3281 293.813 23.4987 294.262 26.2148C294.722 29.0199 294.958 32.1589 294.958 35.5652C294.958 39.4166 294.688 42.8896 294.172 45.8951C293.667 48.8115 292.915 51.1825 291.939 52.9301C290.884 54.778 289.762 56.0692 288.595 56.7927C287.439 57.5052 286.216 57.8502 284.847 57.8502H282.625V21.6954Z" fill="#D60000"/>
<path d="M356.26 3.13067V13.4717L357.371 13.8168C357.988 14.0061 358.538 14.1953 359.02 14.3845C359.469 14.5626 359.94 14.7853 360.344 15.019C360.849 15.3307 361.265 15.6869 361.579 16.0654C361.826 16.3548 361.848 16.544 361.848 16.6665C361.848 17.5236 361.747 18.4475 361.556 19.4159C361.354 20.4511 361.018 21.8537 360.58 23.5679L352.478 52.5764L344.859 23.1895C344.634 22.1988 344.432 21.1302 344.241 20.0059C344.062 18.9261 343.972 17.9132 343.972 16.9781C343.972 16.5774 344.051 16.1878 344.219 15.7982C344.354 15.4643 344.578 15.186 344.87 14.9745C345.229 14.7185 345.644 14.4624 346.104 14.2064C346.441 14.0283 346.755 13.917 347.036 13.8947L348.461 13.75V3.13067H320.508V13.494L321.821 13.7166C323.089 13.9393 324.267 14.9856 325.322 16.8112C325.827 17.7128 326.354 18.8816 326.904 20.2842C327.454 21.6867 327.981 23.3453 328.464 25.2376L341.257 71.5332V103.948C341.257 106.063 341.189 107.777 341.066 109.046C340.954 110.17 340.729 111.05 340.426 111.628C339.977 112.408 339.382 112.964 338.631 113.309C337.744 113.71 336.499 113.988 334.928 114.122L333.48 114.244V124.875H365.114V114.311L363.745 114.122C362.039 113.888 360.76 113.565 359.94 113.165C359.2 112.797 358.605 112.263 358.156 111.617C357.965 111.295 357.719 110.649 357.584 109.347C357.46 108.144 357.393 106.319 357.393 103.948V70.7873L370.466 25.8944C370.982 24.1802 371.51 22.6552 372.026 21.3862C372.542 20.1061 373.058 18.9595 373.496 18.0579C374.091 17.0004 374.764 16.0542 375.527 15.2305C376.223 14.4736 377.042 13.9059 378.041 13.4829L378.995 13.071V3.13067H356.226H356.26Z" fill="#D60000"/>
</svg>
