<svg width="580" height="128" viewBox="0 0 580 128" fill="none" xmlns="http://www.w3.org/2000/svg">
<path d="M43.5734 86.2016C43.0123 89.3406 42.2941 92.5465 41.4637 95.7301C40.6446 98.858 39.6571 101.774 38.5125 104.379C37.424 106.884 36.1447 108.91 34.7083 110.39C33.4291 111.704 32.0152 112.349 30.3768 112.349C27.7846 112.349 25.5628 110.668 23.599 107.207C21.4557 103.422 19.7836 97.9118 18.6278 90.8434C17.4608 83.6748 16.866 75.0479 16.866 65.2189C16.866 53.8537 17.4496 44.0581 18.6054 36.0991C19.75 28.2181 21.3322 22.1515 23.3072 18.0663C25.069 14.4374 26.9206 12.5896 28.8282 12.5896C29.9279 12.5896 31.0389 13.4913 32.1498 15.2723C33.5076 17.4541 34.7869 20.248 35.9876 23.5986C36.9639 26.2701 37.8504 29.3313 38.6471 32.6818C39.4326 36.0324 40.0274 39.4608 40.3977 42.9004L40.5548 44.303H48.2865V1.82555H41.1607L41.0934 3.32829C40.9812 5.62136 40.8017 6.90146 40.6446 7.60274C40.4987 7.43577 40.3528 7.26881 40.1957 7.11297C38.4227 5.04253 36.6385 3.35056 34.8654 2.09271C32.9241 0.712415 30.7471 0 28.3794 0C24.5079 0 20.9619 1.2022 17.8535 3.56205C14.8461 5.84399 12.1754 9.09436 9.9311 13.213C7.73167 17.2314 5.86889 22.0179 4.41008 27.4278C2.95127 32.7931 1.84034 38.7262 1.11094 45.071C0.381534 51.3937 0 58.1171 0 65.0631C0 74.6138 0.684516 83.3074 2.04233 90.9102C3.40014 98.5463 5.33025 105.17 7.77655 110.602C10.2565 116.112 13.1966 120.408 16.5182 123.369C19.9744 126.442 23.7673 128 27.8071 128C30.9154 128 33.7096 127.21 36.111 125.651C38.4339 124.137 40.4762 122.067 42.1595 119.473C43.7866 116.969 45.2117 114.086 46.3788 110.88C47.5346 107.719 48.4997 104.346 49.2627 100.839C50.0146 97.3775 50.6654 93.8934 51.2041 90.4649L51.3387 89.5855L44.0559 83.5412L43.5734 86.2127V86.2016Z" fill="#D60000"/>
<path d="M74.4892 13.8439L76.0378 13.8773C77.8669 13.9218 79.3594 14.1667 80.4367 14.6008C81.3344 14.957 81.9404 15.5024 82.2882 16.226C82.681 17.0942 82.9503 18.0849 83.085 19.1647C83.2309 20.3446 83.3094 21.9587 83.3094 23.9623V103.619C83.3094 105.622 83.2309 107.259 83.085 108.461C82.9503 109.574 82.681 110.565 82.3107 111.399C81.5139 113.058 79.3931 113.96 76.0154 114.093L74.4892 114.149V124.857H108.782V114.149L107.256 114.093C103.879 113.971 101.758 113.058 100.972 111.433C100.579 110.565 100.31 109.563 100.175 108.461C100.03 107.259 99.951 105.633 99.951 103.619V23.9623C99.951 21.9475 100.03 20.3335 100.164 19.1647C100.299 18.0849 100.568 17.0942 100.939 16.2594C101.309 15.5024 101.915 14.957 102.813 14.6008C103.901 14.1667 105.382 13.9218 107.211 13.8773L108.76 13.8439V3.11319H74.4668V13.8439H74.4892Z" fill="#D60000"/>
<path d="M161.1 73.0443L162.357 73.3114C163.131 73.4784 163.759 73.701 164.208 73.9793C164.635 74.2465 165.05 74.6472 165.409 75.1704C165.6 75.4487 165.869 76.0164 166.037 77.1072C166.195 78.1424 166.273 79.3446 166.273 80.6804V91.2775C166.273 95.0288 166.026 98.2012 165.521 100.728C165.016 103.266 164.478 105.314 163.883 106.828C163.075 109.054 162.2 110.657 161.291 111.615C160.505 112.427 159.664 112.806 158.631 112.806C157.891 112.806 156.858 111.904 155.803 110.346C154.479 108.386 153.222 105.348 152.067 101.296C150.888 97.1772 149.912 91.9565 149.171 85.7675C148.431 79.5561 148.06 72.2317 148.06 63.9944C148.06 53.286 148.61 43.8911 149.688 36.0769C150.754 28.3405 152.269 22.3073 154.165 18.1442C155.859 14.4597 157.689 12.5896 159.607 12.5896C161.19 12.5896 162.547 13.3911 163.737 15.0274C165.151 16.9754 166.52 19.569 167.822 22.7526C168.775 25.0345 169.561 27.7729 170.144 30.9008C170.762 34.1511 171.446 37.7466 172.22 41.6648L172.467 42.9338H180.659V1.82555H173.444L173.343 3.28377C173.242 4.78651 172.995 6.18905 172.624 7.4469C172.58 7.58048 172.546 7.70293 172.512 7.81424C172.288 7.54709 171.996 7.17975 171.603 6.66771C170.661 5.36533 169.494 4.20767 168.136 3.22811C166.812 2.27081 165.409 1.49161 163.973 0.912775C162.458 0.300548 160.988 0 159.596 0C155.725 0 152.168 1.2022 149.014 3.56205C145.973 5.84399 143.258 9.06097 140.957 13.1128C138.702 17.0867 136.783 21.8064 135.257 27.1384C133.742 32.4258 132.586 38.2586 131.812 44.4922C131.037 50.6924 130.645 57.2599 130.645 64.0056C130.645 74.4134 131.34 83.6748 132.709 91.5224C134.09 99.4146 135.986 106.093 138.354 111.37C140.755 116.724 143.504 120.831 146.512 123.559C149.665 126.408 152.975 127.855 156.364 127.855C159.304 127.855 161.885 127.187 164.029 125.863C166.116 124.572 167.878 122.88 169.247 120.82C169.606 120.275 169.942 119.729 170.257 119.162L172.086 127.855H181.467V80.7027C181.467 79.3224 181.557 78.1202 181.736 77.1184C181.927 76.0386 182.208 75.4709 182.443 75.1147C182.724 74.6695 183.049 74.2576 183.431 73.9014C183.61 73.7344 183.992 73.4895 184.822 73.3114L186.079 73.0443V62.5808H161.066V73.0443H161.1Z" fill="#D60000"/>
<path d="M249.391 111.612C248.696 110.421 248.18 109.174 247.854 107.927C247.506 106.58 247.17 105.089 246.878 103.541L230.124 0.765204H216.692L201.733 101.193C201.262 104.365 200.398 107.204 199.175 109.63C198.58 110.777 197.918 111.768 197.2 112.591C196.448 113.437 195.696 114.172 194.967 114.773L194.395 115.241V124.869H216.176V114.806L215.233 114.395C214.706 114.161 214.189 113.816 213.684 113.348C213.168 112.87 212.787 112.435 212.596 112.124C212.147 111.278 211.867 110.465 211.754 109.73C211.631 108.896 211.564 108.15 211.564 107.515C211.564 106.58 211.62 105.768 211.721 105.078C211.833 104.31 211.99 103.096 212.192 101.449L214.1 85.5308H226.578L228.89 103.13C229.069 104.187 229.193 105.222 229.238 106.191C229.294 107.193 229.327 107.994 229.327 108.584C229.327 110.354 229.17 111.244 229.047 111.69C228.878 112.28 228.609 112.781 228.183 113.315C227.925 113.682 227.487 114.105 226.421 114.105H224.839V124.869H253.252V114.595L252.04 114.306C251.243 114.116 250.3 113.159 249.414 111.612H249.391ZM224.502 73.0191H215.828L220.429 39.124L224.502 73.0191Z" fill="#D60000"/>
<path d="M315.561 113.029C314.764 112.138 314.135 111.314 313.687 110.602C313.305 109.967 312.935 108.999 312.587 107.73C312.217 106.35 311.813 104.613 311.409 102.587C311.061 100.751 310.623 98.5244 310.073 95.8974C309.535 93.2703 308.951 90.5766 308.334 87.7937C307.717 85.0108 307.122 82.4172 306.538 79.9906C305.955 77.5639 305.45 75.6048 305.012 74.1466C303.98 70.7515 302.51 68.1245 300.647 66.3435C299.817 65.5531 298.975 64.863 298.122 64.2842C299.009 63.9168 299.906 63.427 300.782 62.826C302.746 61.4902 304.462 59.8427 305.921 57.9281C307.806 55.3791 309.209 52.2734 310.096 48.6891C310.971 45.1715 311.409 40.7635 311.409 35.5874C311.409 29.4985 310.679 24.2111 309.254 19.8587C307.806 15.4396 305.876 11.9554 303.542 9.51766C301.612 7.46948 299.11 5.86657 296.102 4.76456C293.151 3.68482 289.628 3.13937 285.61 3.13937H261.383V13.5584L262.572 13.8589C263.975 14.2151 265.03 14.9609 265.759 16.1186C266.107 16.6863 266.343 17.4655 266.466 18.4451C266.612 19.5693 266.679 20.6268 266.679 21.5618V105.86C266.679 108.331 266.354 110.179 265.748 111.314C265.266 112.127 264.76 112.828 264.222 113.407C263.852 113.808 263.369 114.042 262.729 114.142L261.383 114.342V124.884H287.944V114.398L286.665 114.142C286.16 114.042 285.599 113.741 285.004 113.251C284.365 112.728 283.882 112.127 283.523 111.415C283.242 110.847 283.018 110.012 282.85 108.954C282.67 107.83 282.58 106.728 282.58 105.693V70.0725H283.018C284.017 70.0725 284.836 70.4955 285.621 71.386C286.586 72.4991 287.484 74.0464 288.303 75.961C288.808 77.1521 289.381 78.9776 289.987 81.382C290.615 83.8309 291.266 86.7473 291.928 90.0311C292.59 93.3037 293.252 96.8881 293.903 100.662C294.554 104.446 295.193 108.287 295.833 112.194C296.461 116.079 297.034 119.886 297.527 123.514L297.718 124.872H319.533V113.952H317.951C316.862 113.952 316.099 113.663 315.527 113.029H315.561ZM282.625 21.6954C282.625 20.6491 282.726 19.6472 282.939 18.7122C283.186 17.5879 283.411 17.0425 283.557 16.7531C283.759 16.3412 284.073 15.9739 284.499 15.6288C284.813 15.3728 285.184 15.2615 285.655 15.2615H287.787C288.438 15.2615 289.1 15.5843 289.796 16.2633C290.671 17.1093 291.524 18.2892 292.321 19.7586C293.162 21.3281 293.813 23.4987 294.262 26.2148C294.722 29.0199 294.958 32.1589 294.958 35.5652C294.958 39.4166 294.688 42.8896 294.172 45.8951C293.667 48.8115 292.915 51.1825 291.939 52.9301C290.884 54.7779 289.762 56.0692 288.595 56.7927C287.439 57.5051 286.216 57.8502 284.847 57.8502H282.625V21.6954Z" fill="#D60000"/>
<path d="M374.035 86.8809C373.541 90.4764 372.946 93.7824 372.251 96.7211C371.555 99.6264 370.725 102.265 369.759 104.569C368.66 107.24 367.336 109.311 365.821 110.724C364.418 112.027 362.645 112.661 360.389 112.661H355.665C355.228 112.661 354.767 112.528 354.285 112.238C353.78 111.938 353.354 111.504 352.983 110.914C352.748 110.524 352.433 109.745 352.276 108.175C352.13 106.739 352.052 105.014 352.052 103.033V68.4028H355.306C356.327 68.4028 357.124 68.6922 357.775 69.2822C358.56 70.0057 359.234 70.9296 359.772 72.0428C360.356 73.1782 360.861 74.7811 361.276 76.7847C361.691 78.8441 361.927 81.2262 361.96 83.8532L361.983 85.4005H369.737V40.4073H361.983L361.96 41.9546C361.927 44.1809 361.68 46.3181 361.242 48.3217C360.816 50.292 360.311 51.8838 359.739 53.0526C359.267 54.0321 358.65 54.8336 357.898 55.4124C357.214 55.9356 356.361 56.1916 355.295 56.1916H352.041V24.5339C352.041 20.9051 352.422 18.1556 353.14 16.4748C353.309 16.1408 353.578 15.8737 353.982 15.6511C354.274 15.4841 354.868 15.2837 355.991 15.2837H360.367C361.736 15.2837 363.071 15.7401 364.452 16.6863C365.809 17.6213 366.988 19.3022 367.964 21.7511C368.66 23.3095 369.299 25.046 369.849 26.9272C370.41 28.8306 370.904 30.7341 371.319 32.5819C371.734 34.4075 372.071 36.0661 372.352 37.4798L372.599 38.7599H379.691L378.681 3.13937H329.283V13.6474L330.585 13.8812C332.515 14.2263 333.469 14.5491 333.929 14.7606C334.333 14.9387 334.726 15.4507 335.074 16.2633C335.466 17.1427 335.747 18.1445 335.904 19.2576C336.072 20.4487 336.151 22.0516 336.151 23.9996V103.044C336.151 105.281 336.05 107.051 335.859 108.287C335.68 109.411 335.365 110.357 334.894 111.17C334.512 111.904 334.008 112.472 333.345 112.906C332.661 113.363 331.752 113.674 330.641 113.841L329.294 114.042V124.895H380.072L381.385 85.5452H374.214L374.024 86.9032L374.035 86.8809Z" fill="#D60000"/>
<path d="M396.48 3.12432L395.357 43.843H402.461L402.64 42.485C403.022 39.6798 403.504 36.6855 404.065 33.6021C404.626 30.541 405.412 27.413 406.377 24.2962C407.129 21.9141 407.959 20.0886 408.823 18.853C409.631 17.7064 410.45 16.9161 411.27 16.5043C412.1 16.0813 412.886 15.8698 413.637 15.8698H414.008V103.941C414.008 105.589 413.974 106.902 413.918 107.86C413.873 108.739 413.772 109.451 413.626 109.975C413.469 110.542 413.256 111.143 413.009 111.722C412.627 112.524 412.122 113.069 411.472 113.403C410.955 113.67 409.867 114.004 407.611 114.116L406.108 114.193V124.88H438.089V114.193L436.586 114.116C434.386 114.004 433.275 113.67 432.737 113.403C432.074 113.08 431.569 112.535 431.21 111.789C430.941 111.155 430.717 110.542 430.56 109.975C430.414 109.451 430.313 108.739 430.268 107.86C430.212 106.891 430.178 105.578 430.178 103.941V15.8698H430.548C431.289 15.8698 432.086 16.0813 432.916 16.5043C433.735 16.9161 434.566 17.7176 435.396 18.8641C436.271 20.0886 437.079 21.9141 437.797 24.2851C438.774 27.413 439.548 30.5521 440.12 33.591C440.693 36.6632 441.164 39.6576 441.545 42.4738L441.725 43.8319H448.828L447.706 3.11319H396.446L396.48 3.12432Z" fill="#D60000"/>
<path d="M462.575 3.12433L461.453 43.843H468.556L468.736 42.485C469.117 39.6799 469.6 36.6855 470.161 33.6021C470.722 30.541 471.508 27.413 472.473 24.2963C473.225 21.9141 474.055 20.0886 474.919 18.853C475.727 17.7065 476.546 16.9161 477.365 16.5043C478.196 16.0813 478.981 15.8698 479.733 15.8698H480.103V103.941C480.103 105.589 480.07 106.902 480.014 107.86C479.969 108.739 479.868 109.451 479.722 109.975C479.565 110.542 479.352 111.143 479.105 111.722C478.723 112.524 478.218 113.069 477.567 113.403C477.051 113.67 475.963 114.004 473.707 114.116L472.203 114.193V124.88H504.185V114.193L502.681 114.116C500.482 114.004 499.371 113.67 498.832 113.403C498.17 113.08 497.665 112.535 497.306 111.789C497.037 111.155 496.812 110.542 496.655 109.975C496.509 109.451 496.408 108.739 496.363 107.86C496.307 106.891 496.274 105.578 496.274 103.941V15.8698H496.644C497.385 15.8698 498.181 16.0813 499.012 16.5043C499.831 16.9161 500.661 17.7176 501.492 18.8641C502.367 20.0886 503.175 21.9141 503.893 24.2851C504.869 27.4131 505.644 30.5521 506.216 33.591C506.788 36.6632 507.26 39.6576 507.641 42.4738L507.821 43.8319H514.924L513.802 3.1132H462.542L462.575 3.12433Z" fill="#D60000"/>
<path d="M572.497 85.5229L572.306 86.8809C571.813 90.4764 571.218 93.7824 570.522 96.7211C569.826 99.6264 568.996 102.265 568.031 104.569C566.931 107.24 565.607 109.311 564.092 110.724C562.689 112.027 560.916 112.661 558.661 112.661H553.937C553.499 112.661 553.039 112.528 552.556 112.238C552.051 111.938 551.625 111.504 551.255 110.914C551.019 110.524 550.705 109.745 550.548 108.175C550.402 106.739 550.323 105.014 550.323 103.033V68.4028H553.578C554.599 68.4028 555.395 68.6922 556.046 69.2822C556.832 70.0057 557.505 70.9296 558.044 72.0428C558.627 73.1782 559.132 74.7811 559.547 76.7847C559.963 78.8441 560.198 81.2262 560.232 83.8532L560.254 85.4005H568.008V40.4073H560.254L560.232 41.9546C560.198 44.1809 559.951 46.3181 559.514 48.3217C559.087 50.292 558.582 51.8838 558.01 53.0526C557.539 54.0321 556.922 54.8336 556.17 55.4124C555.485 55.9356 554.632 56.1916 553.566 56.1916H550.312V24.5339C550.312 20.9051 550.694 18.1556 551.412 16.4748C551.58 16.1408 551.849 15.8737 552.253 15.6511C552.545 15.4841 553.14 15.2837 554.262 15.2837H558.638C560.008 15.2837 561.343 15.7401 562.723 16.6863C564.081 17.6213 565.259 19.3022 566.235 21.7511C566.931 23.3095 567.571 25.046 568.121 26.9272C568.682 28.8306 569.176 30.7341 569.591 32.5819C570.006 34.4075 570.343 36.0661 570.623 37.4798L570.87 38.7599H577.962L576.952 3.13937H527.555V13.6474L528.856 13.8812C530.786 14.2263 531.74 14.5491 532.2 14.7606C532.604 14.9387 532.997 15.4507 533.345 16.2633C533.738 17.1427 534.018 18.1445 534.175 19.2576C534.344 20.4487 534.422 22.0516 534.422 23.9996V103.044C534.422 105.281 534.321 107.051 534.131 108.287C533.951 109.411 533.637 110.357 533.165 111.17C532.784 111.904 532.279 112.472 531.617 112.906C530.932 113.363 530.023 113.674 528.913 113.841L527.566 114.042V124.895H578.344L579.656 85.5452H572.486L572.497 85.5229Z" fill="#D60000"/>
</svg>
