<svg width="716" height="128" viewBox="0 0 716 128" fill="none" xmlns="http://www.w3.org/2000/svg">
<path d="M49.9472 16.7966C48.6231 14.1455 47.198 12.0491 45.7167 10.5849C44.1008 8.93217 42.4176 7.54561 40.7119 6.44746C38.9613 5.32714 37.02 4.47302 34.9216 3.92949C32.8568 3.38597 30.4217 3.11975 27.6836 3.11975H0V13.8017L1.54858 13.8461C3.75923 13.9015 4.69062 14.2454 5.04971 14.445C5.59957 14.7556 6.05965 15.3325 6.42997 16.1977C6.82272 17.0629 7.09204 18.0279 7.2267 19.0595C7.37258 20.1798 7.43991 21.8215 7.43991 23.9179V103.295C7.43991 105.092 7.36136 106.667 7.21548 107.987C7.08082 109.185 6.8115 110.228 6.41874 111.093C6.03721 111.947 5.54346 112.579 4.95994 113.001C4.63451 113.234 3.75923 113.622 1.50369 113.733L0 113.81V124.459H31.4092V113.799L29.8943 113.733C27.4031 113.622 26.3932 113.189 26.0004 112.956C25.3271 112.535 24.7997 111.914 24.4069 111.093C24.0142 110.228 23.7561 109.163 23.6102 107.92C23.4643 106.578 23.3858 105.025 23.3858 103.306V75.0205H26.0116C29.3893 75.0205 32.3855 74.6988 34.9103 74.0554C37.4913 73.401 39.8029 72.3583 41.7779 70.9607C43.7417 69.5741 45.5484 67.7217 47.1306 65.4699C48.5221 63.5288 49.7789 61.3658 50.8562 59.0696C51.9447 56.7402 52.7975 53.9117 53.3923 50.6838C53.987 47.4892 54.2788 43.5292 54.2788 38.8926C54.2788 34.256 53.8748 29.9633 53.0893 26.3028C52.2926 22.6201 51.2377 19.4366 49.936 16.8188L49.9472 16.7966ZM30.0626 61.6098C28.8395 62.4306 27.6275 62.8189 26.3707 62.8189H23.4082V25.6483C23.4082 22.964 23.4868 20.8786 23.6326 19.4255C23.7897 17.8282 24.104 17.0407 24.3284 16.6746C24.564 16.2864 24.9231 15.9203 25.372 15.5876C25.5628 15.4545 26.0341 15.2215 27.1338 15.2215H28.1662C29.1537 15.2215 30.1187 15.5432 31.1062 16.2087C32.1274 16.8965 33.0924 18.0723 33.9789 19.725C35.0001 21.5774 35.7519 24.1509 36.2233 27.3676C36.7058 30.7064 36.9527 34.5222 36.9527 38.7263C36.9527 43.1965 36.5936 47.0012 35.8754 50.0294C35.1572 53.0687 34.3156 55.5756 33.373 57.4834C32.4304 59.4024 31.3194 60.7889 30.0738 61.6209L30.0626 61.6098Z" fill="#D60000"/>
<path d="M119.431 112.643C118.634 111.756 117.995 110.935 117.557 110.214C117.176 109.582 116.805 108.617 116.457 107.352C116.087 105.966 115.683 104.235 115.279 102.228C114.931 100.397 114.494 98.1788 113.944 95.561C113.405 92.9432 112.822 90.2589 112.204 87.4858C111.587 84.7127 110.993 82.1282 110.409 79.71C109.826 77.2919 109.321 75.3397 108.883 73.8866C107.851 70.5034 106.381 67.8856 104.518 66.1108C103.687 65.3233 102.846 64.6355 101.993 64.0587C102.879 63.6927 103.777 63.2046 104.652 62.6056C106.605 61.2745 108.333 59.6329 109.792 57.725C111.677 55.1848 113.08 52.0901 113.966 48.5183C114.842 45.0131 115.279 40.6206 115.279 35.4626C115.279 29.4062 114.55 24.1262 113.125 19.7891C111.677 15.3854 109.747 11.9135 107.413 9.48428C105.483 7.44329 102.98 5.846 99.973 4.74785C97.0217 3.67189 93.4981 3.12836 89.4808 3.12836H65.2534V13.5108L66.4429 13.8103C67.8456 14.1653 68.9004 14.9085 69.6186 16.0621C69.9665 16.6278 70.2021 17.4153 70.3256 18.3804C70.4714 19.5007 70.5388 20.5545 70.5388 21.4862V105.489C70.5388 107.951 70.2133 109.793 69.6074 110.924C69.1249 111.734 68.6199 112.433 68.0812 113.009C67.7109 113.409 67.2284 113.642 66.5888 113.741L65.2422 113.941V124.446H91.8037V113.997L90.5244 113.741C90.0194 113.642 89.4584 113.342 88.8636 112.854C88.224 112.333 87.7415 111.734 87.3824 111.035C87.1018 110.469 86.8774 109.637 86.7091 108.583C86.5295 107.463 86.4398 106.365 86.4398 105.333V69.8378H86.8774C87.8761 69.8378 88.6953 70.2593 89.4808 71.1467C90.4459 72.256 91.3436 73.7978 92.1628 75.7057C92.6677 76.8926 93.24 78.7117 93.846 81.1077C94.4744 83.548 95.1253 86.4542 95.7873 89.7264C96.4494 92.9765 97.1115 96.5483 97.7623 100.32C98.4132 104.091 99.0528 107.918 99.6924 111.811C100.321 115.683 100.893 119.476 101.387 123.092L101.578 124.446H123.392V113.564H121.81C120.722 113.564 119.959 113.276 119.398 112.643H119.431ZM86.4959 21.6304C86.4959 20.5878 86.5969 19.5894 86.8101 18.6577C87.0569 17.5374 87.2814 16.9938 87.4273 16.7054C87.6292 16.295 87.9434 15.9289 88.3699 15.5851C88.6841 15.33 89.0432 15.219 89.5257 15.219H91.6578C92.3086 15.219 92.9707 15.5407 93.6665 16.2174C94.5417 17.0604 95.3946 18.2473 96.1913 19.7004C97.0329 21.2644 97.6838 23.4274 98.1326 26.1339C98.5927 28.9292 98.8284 32.0572 98.8284 35.4515C98.8284 39.2895 98.5591 42.7503 98.0429 45.7452C97.5379 48.6514 96.786 51.0141 95.8098 52.7556C94.7549 54.5969 93.6328 55.8837 92.4657 56.6047C91.3099 57.3146 90.0868 57.6584 88.7177 57.6584H86.4959V21.6304Z" fill="#D60000"/>
<path d="M180.155 18.6193C177.966 12.8402 175.195 8.27012 171.918 5.06443C168.495 1.71453 164.444 0.0173959 159.889 0.0173959C155.333 0.0173959 151.282 1.71453 147.848 5.06443C144.571 8.28121 141.799 12.8402 139.611 18.6193C137.468 24.2986 135.841 31.0538 134.775 38.6965C133.709 46.2948 133.17 54.736 133.17 63.7874C133.17 72.8388 133.709 81.2801 134.775 88.8783C135.841 96.5321 137.468 103.287 139.611 108.956C141.799 114.735 144.571 119.305 147.848 122.51C151.27 125.86 155.321 127.557 159.889 127.557C164.456 127.557 168.495 125.86 171.918 122.51C175.195 119.305 177.966 114.746 180.155 108.956C182.298 103.276 183.925 96.521 184.991 88.8672C186.057 81.2579 186.596 72.8166 186.596 63.7763C186.596 54.736 186.057 46.2947 184.991 38.6854C183.925 31.0316 182.298 24.2764 180.155 18.6082V18.6193ZM159.889 115.389C158.43 115.389 156.87 113.426 155.49 109.865C153.851 105.661 152.561 99.5714 151.641 91.7845C150.709 83.9311 150.238 74.5137 150.238 63.7874C150.238 55.7122 150.507 48.3136 151.035 41.8134C151.562 35.3244 152.325 29.6895 153.279 25.064C154.222 20.5272 155.366 17.022 156.668 14.626C157.409 13.2728 158.576 11.6533 159.889 11.6533C161.201 11.6533 162.368 13.2728 163.109 14.626C164.411 17.0109 165.555 20.5272 166.498 25.064C167.463 29.6895 168.215 35.3244 168.742 41.8134C169.27 48.3247 169.539 55.7233 169.539 63.7874C169.539 74.5137 169.068 83.9311 168.136 91.7845C167.216 99.5714 165.926 105.65 164.31 109.865C162.941 113.426 161.37 115.389 159.889 115.389Z" fill="#D60000"/>
<path d="M247.535 23.6936C245.526 18.4913 243.069 14.2984 240.241 11.2591C237.985 8.71892 235.146 6.70011 231.813 5.2692C228.492 3.84937 224.744 3.12836 220.67 3.12836H197.24V13.5885L198.53 13.8325C199.417 13.9989 200.124 14.2318 200.617 14.5202C201.021 14.7532 201.336 15.086 201.594 15.574C201.975 16.2396 202.424 17.737 202.424 21.0314V105.955C202.424 107.164 202.346 108.195 202.188 109.005C202.043 109.781 201.818 110.469 201.571 110.979C201.033 111.967 199.854 112.954 198.059 113.919L197.229 114.363V124.457H220.996C224.665 124.457 228.133 123.88 231.308 122.726C234.54 121.562 237.323 119.787 239.601 117.435C242.541 114.407 245.089 110.181 247.165 104.879C249.207 99.6652 250.823 93.4646 251.945 86.4431C253.067 79.4549 253.639 71.7236 253.639 63.4819C253.639 55.2403 253.112 48.2077 252.068 41.519C251.014 34.8082 249.487 28.8072 247.512 23.6936H247.535ZM225.339 111.39C224.497 111.778 223.678 111.967 222.915 111.967H221.13C220.435 111.967 219.728 111.789 219.178 110.392C218.864 109.671 218.639 108.828 218.527 107.874C218.404 106.831 218.336 105.844 218.336 104.945V22.0741C218.336 21.1646 218.404 20.1219 218.527 18.9793C218.662 17.7481 218.92 17.1047 219.144 16.7054C219.436 16.1175 219.941 15.5185 221.355 15.5185H223.027C224.531 15.5185 225.81 15.9844 226.921 16.9273C228.133 17.9589 229.378 19.9444 230.624 22.8506C232.408 26.9104 233.833 32.268 234.866 38.7682C235.898 45.3126 236.426 53.2437 236.426 62.3394C236.426 72.2893 235.876 80.7084 234.798 87.386C233.721 94.0303 232.487 99.2437 231.106 102.86C230.052 105.555 228.997 107.596 227.976 108.938C227.022 110.192 226.135 111.013 225.327 111.379L225.339 111.39Z" fill="#D60000"/>
<path d="M298.622 13.5601L299.878 13.8263C300.709 14.0038 301.562 14.2922 302.403 14.6915C303.133 15.0354 303.671 15.4347 304.008 15.8895L304.109 16.0115C304.547 16.4774 304.906 17.1984 305.152 18.1301C305.444 19.1839 305.59 20.6703 305.59 22.5449V86.3482C305.59 89.1213 305.467 91.9831 305.22 94.8338C304.984 97.6402 304.479 100.391 303.739 103.031C303.312 104.628 302.695 106.17 301.887 107.623C301.146 108.977 300.159 110.097 298.981 110.94C297.858 111.739 296.489 112.127 294.773 112.127C293.056 112.127 291.833 111.628 290.8 110.585C289.611 109.376 288.545 107.756 287.624 105.749C286.805 103.974 286.188 101.6 285.795 98.7051C285.38 95.7323 285.178 91.5283 285.178 86.1929V21.3247C285.178 20.2932 285.268 19.2283 285.447 18.1634C285.593 17.2538 285.908 16.4885 286.356 15.8895C286.783 15.3349 287.31 14.8468 287.961 14.4475C288.533 14.0814 289.083 13.8818 289.577 13.8485L291.058 13.7486V3.12217H263.453V13.6821L264.856 13.8374C266.158 13.9816 266.797 14.2922 267.1 14.514C267.56 14.8579 267.964 15.4236 268.312 16.189C268.705 17.0542 268.952 17.9083 269.053 18.7291C269.154 19.6498 269.21 20.5705 269.21 21.469V86.6366C269.21 90.5189 269.322 93.8799 269.535 96.6308C269.748 99.415 270.096 101.944 270.579 104.129C271.05 106.303 271.622 108.477 272.285 110.574C274.181 116.519 276.919 120.956 280.443 123.741C284 126.569 288.298 128 293.224 128C296.175 128 298.812 127.368 301.057 126.125C303.256 124.916 305.175 123.264 306.757 121.234C308.295 119.259 309.596 117.019 310.629 114.578C311.627 112.193 312.458 109.72 313.097 107.213C313.961 103.808 314.567 100.158 314.893 96.3757C315.218 92.6154 315.387 89.1324 315.387 86.0265V22.8333C315.387 19.5721 315.993 17.276 317.249 15.956C317.721 15.4125 318.226 14.9799 318.742 14.6582C319.337 14.2922 319.943 13.9705 320.56 13.7043L321.502 13.2939V3.11109H298.622V13.5601Z" fill="#D60000"/>
<path d="M376.204 85.9104C375.643 89.0384 374.925 92.233 374.095 95.4054C373.275 98.5224 372.288 101.417 371.143 104.024C370.055 106.52 368.776 108.539 367.339 110.014C366.06 111.323 364.646 111.966 363.008 111.966C360.415 111.966 358.194 110.291 356.23 106.842C354.087 103.07 352.414 97.5795 351.259 90.5359C350.092 83.3924 349.497 74.7958 349.497 65.0013C349.497 53.676 350.08 43.9147 351.236 35.9836C352.381 28.1302 353.963 22.0849 355.938 18.014C357.7 14.3979 359.551 12.5566 361.459 12.5566C362.559 12.5566 363.67 13.4551 364.781 15.2298C366.138 17.4039 367.429 20.1881 368.618 23.5269C369.595 26.1891 370.481 29.2395 371.278 32.5783C372.063 35.9171 372.658 39.3335 373.029 42.7611L373.186 44.1587H380.917V1.83023H373.792L373.724 3.32771C373.612 5.61274 373.433 6.88835 373.275 7.58717C373.13 7.42079 372.984 7.25441 372.827 7.08802C371.065 5.02484 369.269 3.33881 367.496 2.08537C365.555 0.709917 363.378 0 361.01 0C357.139 0 353.593 1.19797 350.484 3.54955C347.477 5.82349 344.806 9.06246 342.562 13.1666C340.362 17.1821 338.5 21.9407 337.041 27.3316C335.582 32.6781 334.471 38.5903 333.742 44.913C333.012 51.2134 332.631 57.9132 332.631 64.8349C332.631 74.3521 333.315 83.0152 334.673 90.5913C336.031 98.2007 337.961 104.801 340.407 110.214C342.887 115.704 345.827 119.986 349.149 122.937C352.605 125.998 356.398 127.551 360.438 127.551C363.546 127.551 366.329 126.764 368.742 125.211C371.065 123.702 373.107 121.639 374.79 119.054C376.429 116.559 377.843 113.686 379.01 110.491C380.165 107.341 381.131 103.98 381.894 100.486C382.645 97.036 383.296 93.553 383.835 90.1476L383.97 89.2714L376.687 83.2482L376.204 85.9104Z" fill="#D60000"/>
<path d="M398.636 3.12217L397.514 43.698H404.617L404.797 42.3448C405.178 39.5384 405.661 36.5657 406.222 33.4931C406.783 30.4427 407.568 27.3257 408.533 24.2198C409.285 21.8461 410.115 20.0269 410.98 18.7957C411.788 17.6532 412.607 16.8656 413.426 16.4441C414.245 16.0226 415.042 15.8229 415.794 15.8229H416.164V103.586C416.164 105.227 416.13 106.536 416.074 107.479C416.029 108.355 415.928 109.065 415.782 109.587C415.625 110.152 415.412 110.751 415.165 111.328C414.784 112.127 414.279 112.67 413.628 113.003C413.112 113.258 412.023 113.602 409.768 113.713L408.264 113.791V124.439H440.245V113.791L438.742 113.713C436.531 113.602 435.431 113.269 434.904 113.003C434.242 112.681 433.737 112.138 433.378 111.395C433.109 110.762 432.884 110.152 432.727 109.587C432.581 109.065 432.48 108.355 432.435 107.479C432.379 106.514 432.345 105.205 432.345 103.586V15.8229H432.716C433.456 15.8229 434.253 16.0337 435.084 16.4441C435.903 16.8545 436.733 17.6532 437.563 18.8068C438.439 20.027 439.247 21.8461 439.965 24.2088C440.941 27.3257 441.715 30.4538 442.288 33.482C442.86 36.5435 443.331 39.5273 443.713 42.3337L443.892 43.687H450.996L449.874 3.11109H398.613L398.636 3.12217Z" fill="#D60000"/>
<path d="M473.21 13.8104L474.759 13.8436C476.599 13.888 478.081 14.132 479.158 14.5646C480.056 14.9196 480.662 15.4631 481.021 16.1841C481.413 17.0493 481.683 18.0366 481.817 19.1125C481.963 20.2883 482.042 21.8967 482.042 23.8933V103.27C482.042 105.267 481.963 106.897 481.817 108.095C481.683 109.205 481.413 110.192 481.043 111.024C480.246 112.677 478.125 113.575 474.748 113.708L473.222 113.764V124.434H507.515V113.764L505.989 113.708C502.611 113.586 500.49 112.677 499.705 111.068C499.312 110.203 499.043 109.205 498.908 108.107C498.762 106.909 498.683 105.289 498.683 103.281V23.9044C498.683 21.8967 498.762 20.2883 498.897 19.1236C499.031 18.0476 499.301 17.0604 499.671 16.2285C500.03 15.4742 500.647 14.9307 501.545 14.5757C502.633 14.1431 504.115 13.8991 505.944 13.8547L507.492 13.8214V3.12839H473.199V13.8214L473.21 13.8104Z" fill="#D60000"/>
<path d="M576.721 18.6193C574.533 12.8402 571.761 8.27012 568.484 5.06443C565.062 1.71453 561.011 0.0173959 556.455 0.0173959C551.899 0.0173959 547.848 1.71453 544.414 5.06443C541.137 8.28121 538.366 12.8402 536.177 18.6193C534.034 24.2986 532.407 31.0538 531.341 38.6965C530.275 46.2948 529.736 54.736 529.736 63.7874C529.736 72.8388 530.275 81.2801 531.341 88.8783C532.407 96.5321 534.034 103.287 536.177 108.956C538.366 114.735 541.137 119.305 544.414 122.51C547.837 125.86 551.888 127.557 556.455 127.557C561.022 127.557 565.062 125.86 568.484 122.51C571.761 119.305 574.533 114.746 576.721 108.956C578.864 103.276 580.492 96.521 581.558 88.8672C582.624 81.2579 583.162 72.8166 583.162 63.7763C583.162 54.736 582.624 46.2947 581.558 38.6854C580.492 31.0316 578.864 24.2764 576.721 18.6082V18.6193ZM556.455 115.389C554.996 115.389 553.436 113.426 552.056 109.865C550.418 105.661 549.127 99.5714 548.207 91.7845C547.276 83.9311 546.804 74.5137 546.804 63.7874C546.804 55.7122 547.074 48.3136 547.601 41.8134C548.128 35.3244 548.892 29.6895 549.845 25.064C550.788 20.5272 551.933 17.022 553.234 14.626C553.975 13.2728 555.142 11.6533 556.455 11.6533C557.768 11.6533 558.935 13.2728 559.675 14.626C560.977 17.0109 562.122 20.5272 563.064 25.064C564.029 29.6895 564.781 35.3244 565.309 41.8134C565.836 48.3247 566.105 55.7233 566.105 63.7874C566.105 74.5137 565.634 83.9311 564.703 91.7845C563.783 99.5714 562.492 105.65 560.876 109.865C559.507 113.426 557.936 115.389 556.455 115.389Z" fill="#D60000"/>
<path d="M628.282 13.3444L629.27 13.7437C630.044 14.0543 630.762 14.4315 631.424 14.8752C632.03 15.2856 632.591 15.8291 633.096 16.4947C633.489 17.0049 633.904 17.737 634.331 18.6799C634.712 19.5118 634.903 20.7098 634.903 22.2405V68.2073L616.657 3.12836H594.27V13.4332L595.549 13.6772C597.176 13.9878 597.995 14.4426 598.399 14.7643C598.971 15.2301 599.387 15.818 599.678 16.5723C599.948 17.2933 600.195 18.1807 600.385 19.2012C600.576 20.2217 600.677 21.5528 600.677 23.1723V103.614C600.677 106.432 600.453 107.74 600.262 108.351C599.981 109.227 599.622 109.992 599.14 110.669C598.59 111.523 597.995 112.2 597.378 112.665C596.727 113.165 596.009 113.564 595.268 113.863L594.281 114.263V124.479H616.926V114.185L615.837 113.83C615.276 113.642 614.704 113.298 614.109 112.776C613.436 112.177 612.785 111.512 612.246 110.835C611.607 109.959 611.135 109.06 610.844 108.173C610.642 107.574 610.406 106.287 610.406 103.614V43.1829L632.793 126.376H644.643V22.2738C644.643 20.2106 644.901 19.179 645.126 18.6688C645.474 17.8479 645.922 17.0826 646.461 16.3727C646.91 15.7737 647.415 15.2634 647.965 14.8419C648.47 14.4537 649.177 14.0987 650.074 13.8103L651.163 13.4554V3.16164H628.282V13.3777V13.3444Z" fill="#D60000"/>
<path d="M714.388 82.8773C713.435 78.8508 711.875 74.8798 709.743 71.0973C708.811 69.389 707.521 67.5477 705.916 65.6065C704.345 63.7097 702.64 61.7797 700.844 59.8718C699.049 57.9639 697.365 56.2002 695.772 54.5696L691.328 50.0772C689.196 47.9586 687.389 45.9398 685.964 44.0763C684.528 42.2128 683.394 40.56 682.609 39.1734C681.689 37.5318 680.892 35.7681 680.241 33.9046C679.613 32.1298 679.299 29.8669 679.299 27.1715C679.299 25.1194 679.523 23.0563 679.983 21.0596C680.421 19.0963 681.117 17.2993 682.026 15.7242C682.867 14.26 683.832 13.2395 684.876 12.6738C685.953 12.0859 687.154 11.8086 688.556 11.8086C689.802 11.8086 691.137 12.4852 692.518 13.8274C694.089 15.3581 695.615 17.4879 697.074 20.1722C698.364 22.546 699.475 25.308 700.384 28.3806C701.304 31.4975 702.112 35.1136 702.797 39.1402L703.021 40.4491H710.562V1.99184H703.156L703.021 3.41166C702.886 4.89803 702.673 6.17365 702.404 7.17197C702.09 6.8392 701.742 6.48425 701.338 6.10711C699.655 4.63182 697.702 3.24528 695.547 2.01402C693.236 0.694033 690.588 0.0173959 687.659 0.0173959C683.641 0.0173959 679.893 1.11555 676.538 3.26747C673.217 5.40829 670.467 8.44761 668.391 12.3188C667.628 13.7498 666.876 15.5134 666.136 17.5877C665.406 19.6398 664.789 21.8804 664.318 24.2209C663.835 26.5947 663.6 28.9685 663.6 31.2868C663.6 33.6051 663.746 36.1119 664.037 38.8961C664.329 41.7136 664.913 44.6198 665.765 47.526C666.629 50.4987 667.954 53.3273 669.682 55.9229C671.04 57.975 672.7 60.26 674.586 62.7003C676.493 65.1628 678.659 67.703 681.016 70.2432L685.515 75.1127C687.524 77.2535 689.533 79.5275 691.485 81.8458C693.404 84.1308 694.964 86.2272 696.097 88.0686C697.062 89.6659 697.826 91.3852 698.364 93.1822C698.892 94.9569 699.161 97.0534 699.161 99.4161C699.161 101.49 698.847 103.642 698.241 105.794C697.635 107.924 696.726 109.876 695.491 111.64C694.706 112.849 693.741 113.792 692.619 114.446C691.508 115.09 690.228 115.411 688.702 115.411C686.783 115.411 684.932 114.502 683.047 112.638C681.016 110.619 679.186 107.99 677.627 104.829C676.224 101.912 675.046 98.4066 674.137 94.4134C673.205 90.3536 672.453 86.0498 671.892 81.6128L671.713 80.2374H663.6V126.359H671.051L671.242 125.017C671.612 122.466 672.072 120.458 672.622 119.061C672.756 118.717 672.869 118.462 672.97 118.251C673.273 118.55 673.688 119.016 674.271 119.715C675.203 120.824 676.325 121.989 677.615 123.176C678.996 124.429 680.701 125.494 682.688 126.315C684.696 127.158 687.109 127.58 689.847 127.58C692.955 127.58 696.086 126.947 699.15 125.716C702.258 124.463 705.142 122.3 707.723 119.271C710.214 116.299 712.223 112.671 713.682 108.49C715.129 104.319 715.87 99.9707 715.87 95.5559C715.87 91.1412 715.387 86.8928 714.445 82.8996L714.388 82.8773Z" fill="#D60000"/>
</svg>
